HIERARCHY
ROOT Hip
{
	OFFSET 1.562290 -1.744753 -0.027700
	CHANNELS 6 Xposition Yposition Zposition Xrotation Yrotation Zrotation
	JOINT LowerSpine
	{
		OFFSET 0.000000 0.154692 0.259874
		CHANNELS 6 Xposition Yposition Zposition Xrotation Yrotation Zrotation
		JOINT MiddleSpine
		{
			OFFSET -0.000000 -0.011152 0.237154
			CHANNELS 3 Xrotation Yrotation Zrotation
			JOINT Chest
			{
				OFFSET 0.000000 0.058786 0.293449
				CHANNELS 3 Xrotation Yrotation Zrotation
				JOINT Neck
				{
					OFFSET -0.000000 0.012376 0.661279
					CHANNELS 6 Xposition Yposition Zposition Xrotation Yrotation Zrotation
					JOINT Head
					{
						OFFSET -0.000003 -0.101573 0.373433
						CHANNELS 3 Xrotation Yrotation Zrotation
						End Site
						{
							OFFSET 0.000000 -0.001601 0.053629
						}
					}
				}
				JOINT LClavicle
				{
					OFFSET 0.060085 -0.196776 0.638167
					CHANNELS 6 Xposition Yposition Zposition Xrotation Yrotation Zrotation
					JOINT LShoulder
					{
						OFFSET 0.351028 0.148115 0.091535
						CHANNELS 3 Xrotation Yrotation Zrotation
						JOINT LForearm
						{
							OFFSET 0.828500 0.007179 -0.002937
							CHANNELS 3 Xrotation Yrotation Zrotation
							JOINT LHand
							{
								OFFSET 0.691143 0.004141 0.002005
								CHANNELS 3 Xrotation Yrotation Zrotation
								JOINT LFinger1
								{
									OFFSET 0.267867 -0.074399 0.023428
									CHANNELS 6 Xposition Yposition Zposition Xrotation Yrotation Zrotation
									JOINT LFinger11
									{
										OFFSET 0.100195 -0.017654 -0.024433
										CHANNELS 3 Xrotation Yrotation Zrotation
										JOINT LFinger12
										{
											OFFSET 0.068401 -0.012057 -0.016682
											CHANNELS 3 Xrotation Yrotation Zrotation
											End Site
											{
												OFFSET 0.050801 -0.008241 -0.015164
											}
										}
									}
								}
								JOINT LFinger2
								{
									OFFSET 0.271866 -0.006476 0.027054
									CHANNELS 6 Xposition Yposition Zposition Xrotation Yrotation Zrotation
									JOINT LFinger21
									{
										OFFSET 0.123886 0.000731 0.000344
										CHANNELS 3 Xrotation Yrotation Zrotation
										JOINT LFinger22
										{
											OFFSET 0.068670 0.000417 0.000210
											CHANNELS 3 Xrotation Yrotation Zrotation
											End Site
											{
												OFFSET 0.053519 -0.000073 -0.003780
											}
										}
									}
								}
								JOINT LFinger3
								{
									OFFSET 0.257650 0.060956 0.018054
									CHANNELS 6 Xposition Yposition Zposition Xrotation Yrotation Zrotation
									JOINT LFinger31
									{
										OFFSET 0.112415 0.007039 -0.005692
										CHANNELS 3 Xrotation Yrotation Zrotation
										JOINT LFinger32
										{
											OFFSET 0.064059 0.004024 -0.003223
											CHANNELS 3 Xrotation Yrotation Zrotation
											End Site
											{
												OFFSET 0.053193 0.002514 -0.006540
											}
										}
									}
								}
								JOINT LFinger4
								{
									OFFSET 0.239088 0.105269 -0.018169
									CHANNELS 6 Xposition Yposition Zposition Xrotation Yrotation Zrotation
									JOINT LFinger41
									{
										OFFSET 0.069146 0.019088 -0.014420
										CHANNELS 3 Xrotation Yrotation Zrotation
										JOINT LFinger42
										{
											OFFSET 0.050705 0.014005 -0.010559
											CHANNELS 3 Xrotation Yrotation Zrotation
											End Site
											{
												OFFSET 0.050514 0.011591 -0.013879
											}
										}
									}
								}
								JOINT LFinger0
								{
									OFFSET 0.055412 -0.042008 -0.041941
									CHANNELS 6 Xposition Yposition Zposition Xrotation Yrotation Zrotation
									JOINT LFinger01
									{
										OFFSET 0.103168 -0.077784 -0.033880
										CHANNELS 3 Xrotation Yrotation Zrotation
										JOINT LFinger02
										{
											OFFSET 0.067934 -0.048944 -0.024309
											CHANNELS 3 Xrotation Yrotation Zrotation
											End Site
											{
												OFFSET 0.042585 -0.029159 -0.014659
											}
										}
									}
								}
							}
						}
					}
				}
				JOINT RClavicle
				{
					OFFSET -0.060085 -0.196776 0.638167
					CHANNELS 6 Xposition Yposition Zposition Xrotation Yrotation Zrotation
					JOINT RShoulder
					{
						OFFSET -0.351089 0.148140 0.091552
						CHANNELS 3 Xrotation Yrotation Zrotation
						JOINT RForearm
						{
							OFFSET -0.828500 0.007179 -0.002937
							CHANNELS 3 Xrotation Yrotation Zrotation
							JOINT RHand
							{
								OFFSET -0.691144 0.004141 0.002005
								CHANNELS 3 Xrotation Yrotation Zrotation
								JOINT RFinger1
								{
									OFFSET -0.267871 -0.074399 0.023430
									CHANNELS 6 Xposition Yposition Zposition Xrotation Yrotation Zrotation
									JOINT RFinger11
									{
										OFFSET -0.100195 -0.017654 -0.024433
										CHANNELS 3 Xrotation Yrotation Zrotation
										JOINT RFinger12
										{
											OFFSET -0.068401 -0.012057 -0.016688
											CHANNELS 3 Xrotation Yrotation Zrotation
											End Site
											{
												OFFSET -0.050801 -0.008241 -0.015164
											}
										}
									}
								}
								JOINT RFinger2
								{
									OFFSET -0.271866 -0.006479 0.027054
									CHANNELS 6 Xposition Yposition Zposition Xrotation Yrotation Zrotation
									JOINT RFinger21
									{
										OFFSET -0.123886 0.000731 0.000347
										CHANNELS 3 Xrotation Yrotation Zrotation
										JOINT RFinger22
										{
											OFFSET -0.068670 0.000420 0.000210
											CHANNELS 3 Xrotation Yrotation Zrotation
											End Site
											{
												OFFSET -0.053519 -0.000073 -0.003780
											}
										}
									}
								}
								JOINT RFinger3
								{
									OFFSET -0.257650 0.060956 0.018057
									CHANNELS 6 Xposition Yposition Zposition Xrotation Yrotation Zrotation
									JOINT RFinger31
									{
										OFFSET -0.112414 0.007039 -0.005692
										CHANNELS 3 Xrotation Yrotation Zrotation
										JOINT RFinger32
										{
											OFFSET -0.064061 0.004024 -0.003223
											CHANNELS 3 Xrotation Yrotation Zrotation
											End Site
											{
												OFFSET -0.053193 0.002514 -0.006540
											}
										}
									}
								}
								JOINT RFinger4
								{
									OFFSET -0.239089 0.105269 -0.018169
									CHANNELS 6 Xposition Yposition Zposition Xrotation Yrotation Zrotation
									JOINT RFinger41
									{
										OFFSET -0.069146 0.019088 -0.014420
										CHANNELS 3 Xrotation Yrotation Zrotation
										JOINT RFinger42
										{
											OFFSET -0.050705 0.014006 -0.010556
											CHANNELS 3 Xrotation Yrotation Zrotation
											End Site
											{
												OFFSET -0.050514 0.011591 -0.013879
											}
										}
									}
								}
								JOINT RFinger0
								{
									OFFSET -0.055412 -0.042006 -0.041938
									CHANNELS 6 Xposition Yposition Zposition Xrotation Yrotation Zrotation
									JOINT RFinger01
									{
										OFFSET -0.103169 -0.077787 -0.033886
										CHANNELS 3 Xrotation Yrotation Zrotation
										JOINT RFinger02
										{
											OFFSET -0.067934 -0.048944 -0.024307
											CHANNELS 3 Xrotation Yrotation Zrotation
											End Site
											{
												OFFSET -0.042585 -0.029159 -0.014660
											}
										}
									}
								}
							}
						}
					}
				}
			}
		}
	}
	JOINT RThigh
	{
		OFFSET -0.307261 0.025206 0.117468
		CHANNELS 6 Xposition Yposition Zposition Xrotation Yrotation Zrotation
		JOINT RShin
		{
			OFFSET -0.022246 0.000000 -1.209169
			CHANNELS 3 Xrotation Yrotation Zrotation
			JOINT RFoot
			{
				OFFSET 0.000000 0.000000 -1.187331
				CHANNELS 3 Xrotation Yrotation Zrotation
				JOINT RToe
				{
					OFFSET 0.000000 -0.272888 -0.130497
					CHANNELS 3 Xrotation Yrotation Zrotation
					End Site
					{
						OFFSET 0.000000 -0.053652 0.000000
					}
				}
			}
		}
	}
	JOINT LThigh
	{
		OFFSET 0.307258 0.025206 0.117477
		CHANNELS 6 Xposition Yposition Zposition Xrotation Yrotation Zrotation
		JOINT LShin
		{
			OFFSET 0.022246 0.000000 -1.209177
			CHANNELS 3 Xrotation Yrotation Zrotation
			JOINT LFoot
			{
				OFFSET 0.000000 0.000000 -1.187331
				CHANNELS 3 Xrotation Yrotation Zrotation
				JOINT LToe
				{
					OFFSET 0.000000 -0.272891 -0.130499
					CHANNELS 3 Xrotation Yrotation Zrotation
					End Site
					{
						OFFSET 0.000000 -0.053652 0.000000
					}
				}
			}
		}
	}
}
MOTION
Frames: 4
Frame Time: 0.041667
1.785111 -0.985678 1.983356 24.631240 9.193318 6.978760 -0.000001 0.154692 0.259874 0.000000 0.000002 -0.000011 1.511369 4.006726 6.229535 3.321266 13.805541 20.652996 -0.000000 0.012376 0.661279 -34.311226 5.305184 3.351895 -2.840690 -0.312565 -0.021006 0.060085 -0.196776 0.638168 -0.022409 12.997575 0.000729 37.130151 52.370537 -50.781316 0.079519 -0.008294 -26.824441 0.000008 -0.000005 0.000002 0.267866 -0.074399 0.023427 -0.000028 0.000020 0.000002 0.000153 0.000064 -0.000164 0.000005 -0.000002 -0.000001 0.271865 -0.006477 0.027053 -0.000036 0.000012 0.000005 0.000043 0.000109 -0.000034 -0.000036 0.000053 -0.000054 0.257650 0.060956 0.018053 -0.000038 0.000009 0.000010 -0.000025 0.000005 0.000016 0.000049 -0.000014 0.000036 0.239088 0.105269 -0.018171 -0.000025 0.000023 0.000036 0.000002 -0.000010 0.000005 -0.000050 0.000024 0.000038 0.055411 -0.042009 -0.041942 -0.000015 -0.000016 0.000028 -0.000062 -0.000061 0.000006 -0.000154 -0.000242 -0.000016 -0.060085 -0.196776 0.638168 0.008224 6.052924 0.021617 -25.954147 -38.962411 73.869165 0.083928 0.009281 27.915823 -46.564449 -30.517593 11.644514 -0.267870 -0.074399 0.023430 0.000012 0.000003 0.000000 -0.000008 0.000009 0.000002 0.000005 -0.000009 -0.000005 -0.271866 -0.006480 0.027054 0.000005 -0.000005 0.000008 -0.000002 0.000006 -0.000001 0.000004 -0.000002 -0.000006 -0.257650 0.060956 0.018057 0.000006 0.000001 0.000004 0.000011 0.000022 0.000019 0.000008 0.000006 0.000011 -0.239089 0.105269 -0.018170 -0.000005 0.000002 0.000009 0.000002 -0.000021 0.000004 0.000001 -0.000007 -0.000011 -0.055412 -0.042005 -0.041939 -0.000013 0.000003 0.000007 -0.000003 0.000005 0.000017 -0.000009 0.000012 -0.000002 -0.320211 0.066708 0.219480 -39.020714 -29.197775 -10.162889 0.846411 0.000000 0.000007 0.201390 0.040669 -0.087985 -0.000003 0.000008 -0.000003 0.305817 -0.027835 0.095749 -67.252577 1.234844 23.851068 72.095386 -0.000006 -0.000004 0.720436 0.711656 -1.514099 -24.959130 -0.000004 0.000013 
1.785111 -0.985678 1.983356 24.631240 9.193318 6.978760 -0.000001 0.154692 0.259874 0.000000 0.000002 -0.000011 1.511369 4.006726 6.229535 3.321266 13.805541 20.652996 -0.000000 0.012376 0.661279 -34.311226 5.305184 3.351895 -2.840690 -0.312565 -0.021006 0.060085 -0.196776 0.638168 -0.022409 12.997575 0.000729 37.130151 52.370537 -50.781316 0.079519 -0.008294 -26.824441 0.000008 -0.000005 0.000002 0.267866 -0.074399 0.023427 -0.000028 0.000020 0.000002 0.000153 0.000064 -0.000164 0.000005 -0.000002 -0.000001 0.271865 -0.006477 0.027053 -0.000036 0.000012 0.000005 0.000043 0.000109 -0.000034 -0.000036 0.000053 -0.000054 0.257650 0.060956 0.018053 -0.000038 0.000009 0.000010 -0.000025 0.000005 0.000016 0.000049 -0.000014 0.000036 0.239088 0.105269 -0.018171 -0.000025 0.000023 0.000036 0.000002 -0.000010 0.000005 -0.000050 0.000024 0.000038 0.055411 -0.042009 -0.041942 -0.000015 -0.000016 0.000028 -0.000062 -0.000061 0.000006 -0.000154 -0.000242 -0.000016 -0.060085 -0.196776 0.638168 0.008224 6.052924 0.021617 -25.954147 -38.962411 73.869165 0.083928 0.009281 27.915823 -46.564449 -30.517593 11.644514 -0.267870 -0.074399 0.023430 0.000012 0.000003 0.000000 -0.000008 0.000009 0.000002 0.000005 -0.000009 -0.000005 -0.271866 -0.006480 0.027054 0.000005 -0.000005 0.000008 -0.000002 0.000006 -0.000001 0.000004 -0.000002 -0.000006 -0.257650 0.060956 0.018057 0.000006 0.000001 0.000004 0.000011 0.000022 0.000019 0.000008 0.000006 0.000011 -0.239089 0.105269 -0.018170 -0.000005 0.000002 0.000009 0.000002 -0.000021 0.000004 0.000001 -0.000007 -0.000011 -0.055412 -0.042005 -0.041939 -0.000013 0.000003 0.000007 -0.000003 0.000005 0.000017 -0.000009 0.000012 -0.000002 -0.320211 0.066708 0.219480 -39.020714 -29.197775 -10.162889 0.846411 0.000000 0.000007 0.201390 0.040669 -0.087985 -0.000003 0.000008 -0.000003 0.305817 -0.027835 0.095749 -67.252577 1.234844 23.851068 72.095386 -0.000006 -0.000004 0.720436 0.711656 -1.514099 -24.959130 -0.000004 0.000013 
1.785463 -0.987064 1.982163 24.751745 9.379048 7.042004 -0.000001 0.154692 0.259874 0.000006 0.000004 -0.000011 1.316455 3.869128 6.127571 2.731588 13.246650 20.368121 0.000000 0.012376 0.661278 -33.115913 5.354675 3.313345 -3.533751 -0.319649 -0.019438 0.060085 -0.196776 0.638167 -0.034683 12.757633 0.001079 36.674202 53.677504 -49.102551 0.079050 -0.006944 -26.422539 0.000009 -0.000004 0.000002 0.267866 -0.074398 0.023427 -0.000034 0.000019 0.000005 0.000152 0.000062 -0.000163 0.000005 -0.000004 -0.000001 0.271865 -0.006476 0.027053 -0.000041 0.000011 0.000008 0.000042 0.000109 -0.000034 -0.000039 0.000054 -0.000055 0.257650 0.060956 0.018053 -0.000040 0.000010 0.000011 -0.000024 0.000007 0.000016 0.000048 -0.000014 0.000037 0.239088 0.105269 -0.018171 -0.000026 0.000023 0.000037 0.000006 -0.000011 0.000003 -0.000051 0.000026 0.000038 0.055411 -0.042008 -0.041942 -0.000020 -0.000017 0.000024 -0.000067 -0.000062 0.000008 -0.000154 -0.000242 -0.000018 -0.060085 -0.196776 0.638167 0.012636 5.519914 0.032976 -24.177705 -38.341803 75.211147 0.084026 0.007449 27.434230 -46.564453 -30.517596 11.644513 -0.267870 -0.074399 0.023430 0.000011 0.000003 0.000000 -0.000005 0.000010 0.000003 0.000006 -0.000010 -0.000003 -0.271866 -0.006479 0.027054 0.000005 -0.000005 0.000007 -0.000001 0.000006 -0.000001 0.000003 -0.000002 -0.000005 -0.257650 0.060956 0.018057 0.000006 0.000001 0.000004 0.000012 0.000022 0.000018 0.000008 0.000006 0.000011 -0.239089 0.105269 -0.018170 -0.000004 0.000001 0.000009 0.000003 -0.000023 -0.000003 0.000002 -0.000006 -0.000009 -0.055411 -0.042006 -0.041939 -0.000009 0.000004 0.000005 -0.000003 0.000006 0.000018 -0.000013 0.000013 -0.000007 -0.320175 0.066867 0.219966 -39.184041 -29.355873 -10.192303 0.909815 0.000001 0.000008 0.106485 0.381463 -0.804609 -0.000002 0.000010 -0.000004 0.305805 -0.027727 0.095948 -67.374571 1.788703 23.199940 71.795349 -0.000009 -0.000008 1.016772 0.761339 -1.627920 -24.897549 0.000002 0.000014 
1.785519 -0.987272 1.981474 24.795967 9.430564 7.064629 -0.000001 0.154692 0.259874 0.000006 0.000003 -0.000012 1.216053 3.799754 6.076024 2.500608 13.038425 20.223546 0.000000 0.012376 0.661278 -32.566728 5.498234 3.365611 -3.749175 -0.317512 -0.017803 0.060085 -0.196776 0.638168 -0.040193 12.606677 0.001194 36.561736 54.080625 -48.442666 0.077196 -0.007604 -26.082674 0.000006 -0.000005 0.000003 0.267867 -0.074399 0.023427 -0.000036 0.000021 0.000004 0.000153 0.000063 -0.000162 0.000004 -0.000003 -0.000000 0.271866 -0.006476 0.027053 -0.000044 0.000011 0.000008 0.000047 0.000109 -0.000033 -0.000038 0.000053 -0.000052 0.257650 0.060956 0.018054 -0.000041 0.000009 0.000012 -0.000024 0.000007 0.000016 0.000048 -0.000016 0.000036 0.239088 0.105269 -0.018170 -0.000027 0.000025 0.000036 0.000002 -0.000010 0.000003 -0.000049 0.000024 0.000036 0.055412 -0.042008 -0.041942 -0.000019 -0.000017 0.000026 -0.000066 -0.000058 0.000004 -0.000157 -0.000246 -0.000011 -0.060085 -0.196776 0.638168 0.015828 5.314480 0.041142 -23.486804 -38.123551 75.783756 0.084100 0.007495 26.999063 -46.564442 -30.517596 11.644517 -0.267871 -0.074398 0.023430 0.000011 0.000003 0.000001 -0.000007 0.000009 0.000001 0.000002 -0.000008 -0.000001 -0.271866 -0.006479 0.027053 0.000005 -0.000005 0.000007 0.000000 0.000007 -0.000001 0.000003 -0.000002 -0.000005 -0.257651 0.060956 0.018057 0.000006 0.000001 0.000004 0.000013 0.000021 0.000018 0.000009 0.000006 0.000011 -0.239089 0.105269 -0.018170 -0.000003 0.000003 0.000009 0.000003 -0.000020 0.000002 0.000003 -0.000006 -0.000010 -0.055412 -0.042005 -0.041939 -0.000015 0.000004 0.000006 -0.000006 0.000009 0.000015 -0.000012 0.000012 -0.000003 -0.320114 0.067134 0.220781 -39.262468 -29.415244 -10.235461 0.967459 -0.000003 0.000007 -0.047040 0.646378 -1.354444 0.000014 0.000006 -0.000004 0.305785 -0.027550 0.096272 -67.479312 2.081534 22.779746 71.690820 -0.000007 -0.000006 1.245602 0.859702 -1.848402 -24.843941 -0.000003 0.000010 
